/* XPM */
static const char* maximize_disabled_xpm[] = {
			"18 15 6 1",
			" 	c None",
			".	c #FFFFFF",
			"+	c #404040",
			"@	c #D4D0C8",
			"#	c #808080",
			"$	c #A0A0A4",
			" ................+",
			" .@@@@@@@@@@@@@@#+",
			" .@@@@@@@@@@@@@@#+",
			" .@@$$$$$$$$$@@@#+",
			" .@@$$$$$$$$$@@@#+",
			" .@@$@@@@@@@$@@@#+",
			" .@@$@@@@@@@$@@@#+",
			" .@@$@@@@@@@$@@@#+",
			" .@@$@@@@@@@$@@@#+",
			" .@@$@@@@@@@$@@@#+",
			" .@@$@@@@@@@$@@@#+",
			" .@@$$$$$$$$$@@@#+",
			" .@@@@@@@@@@@@@@#+",
			" .###############+",
			" +++++++++++++++++"};
